<svg width="130" height="40" viewBox="0 0 200 37" fill="none" xmlns="http://www.w3.org/2000/svg">
<path fill-rule="evenodd" clip-rule="evenodd" d="M164.205 5.65115H158.486V2.81391C160.274 2.00376 162.236 1.58458 164.205 1.55585C166.173 1.58458 168.135 2.00376 169.923 2.81391V5.65115H164.205Z" fill="#D7FA00"/>
<path d="M130.533 29.224V16.9528C130.533 14.5319 128.52 12.5411 126.073 12.5411C123.626 12.5411 121.613 14.5319 121.613 16.9528V29.224H115.666V7.70209H121.613V10.3317C122.722 8.30067 124.616 6.65875 127.822 6.65875C131.716 6.65875 133.978 8.46742 135.206 10.8836C136.564 8.60675 138.802 6.65875 142.294 6.65875C149.165 6.65875 151.347 12.2868 151.347 16.9528V29.224H145.4V16.9528C145.4 14.5319 143.388 12.5411 140.94 12.5411C138.499 12.5411 136.491 14.5211 136.48 16.9333L136.48 29.224H130.533Z" fill="#FEFEFE"/>
<path d="M37.4084 6.65875C43.994 6.65875 49.334 11.9408 49.334 18.4551C49.334 24.9691 43.9938 30.2512 37.4084 30.2512C34.3472 30.2512 31.9244 29.1093 30.2076 27.2332V36.286H24.2607V7.70209H30.2076V9.67671C31.9244 7.80069 34.3472 6.65875 37.4084 6.65875ZM37.4084 12.1029C33.8612 12.1029 30.7894 14.9464 30.7894 18.4551C30.7894 21.9635 33.8612 24.807 37.4084 24.807C40.9554 24.807 43.8298 21.9635 43.8298 18.4551C43.8298 14.946 40.9555 12.1029 37.4084 12.1029Z" fill="#FEFEFE"/>
<path d="M63.4151 6.65863C66.7067 6.65863 69.6872 7.97865 71.8443 10.1128C74.002 12.2466 75.3363 15.1947 75.3363 18.4506C75.3363 21.7065 74.002 24.6547 71.8443 26.7885C69.6872 28.9223 66.7067 30.2426 63.4151 30.2426C60.1237 30.2426 57.1431 28.9223 54.9859 26.7885C52.8288 24.6547 51.4939 21.7065 51.4939 18.4506C51.4939 15.1947 52.8288 12.2466 54.9859 10.1128C57.1431 7.97865 60.1237 6.65863 63.4151 6.65863ZM67.9544 13.9607C66.793 12.8117 65.1882 12.1011 63.4151 12.1011C61.6422 12.1011 60.0371 12.8119 58.8759 13.9607C57.7146 15.1093 56.996 16.697 56.996 18.4506C56.996 20.2042 57.7146 21.7919 58.8759 22.9407C60.0372 24.0894 61.6423 24.8001 63.4151 24.8001C65.1879 24.8001 66.793 24.0894 67.9544 22.9407C69.1156 21.7921 69.8343 20.2043 69.8343 18.4506C69.8343 16.6969 69.1159 15.1093 67.9544 13.9607Z" fill="#FEFEFE"/>
<path d="M84.6318 10.8081C86.8472 8.22171 90.2834 6.65875 94.8215 6.65875V12.5411C91.882 12.5411 89.253 13.3796 87.3799 14.7347C85.6824 15.9629 84.6318 17.6166 84.6318 19.4038V29.1994H78.6848V7.70209H84.6318V10.8081Z" fill="#FEFEFE"/>
<path d="M104.905 0.632324V7.70208H112.065V13.5843H104.905V29.2165H98.958V0.632324H104.905Z" fill="#FEFEFE"/>
<path d="M167.178 12.0018V24.9298H173.831V29.2298C167.413 29.2298 160.996 29.2298 154.578 29.2298V24.9298H161.231V12.0018H154.578V7.70209C160.996 7.70209 167.413 7.70209 173.831 7.70209V12.0018H167.178Z" fill="#D7FA00"/>
<path d="M183.822 7.70209L188.063 13.3644L192.304 7.70209H199.946L191.884 18.466L199.946 29.2297H192.304L188.063 23.5672L183.822 29.2297H176.18L184.242 18.466L176.18 7.70209H183.822Z" fill="#FEFEFE"/>
<path fill-rule="evenodd" clip-rule="evenodd" d="M18.3236 6.65863H8.3701C8.3701 6.65863 5.21965 6.72731 2.82773 8.4408C0.435817 10.1543 0.0532227 12.3029 0.0532227 13.6626C0.0532227 15.0223 0.545891 18.0411 4.83492 19.5912C6.98884 20.3697 8.69765 20.779 10.8718 21.3837C13.5112 22.118 14.3635 22.8252 14.3635 23.505C14.3635 24.1849 14.0885 24.9466 11.724 24.9466C9.35956 24.9466 0.987788 24.9466 0.987788 24.9466L0.998048 30.2373H12.0373C12.0373 30.2373 15.1878 30.1686 17.5797 28.4552C19.9716 26.7417 20.3542 24.5929 20.3542 23.2332C20.3542 21.8735 19.8614 18.8549 15.5725 17.3046C13.4571 16.5401 11.7839 16.1374 9.5356 15.5123C6.89622 14.7779 6.04388 14.0707 6.04388 13.3908C6.04388 12.711 6.3188 11.9494 8.68326 11.9494C11.0477 11.9494 18.3337 11.9494 18.3337 11.9494L18.3236 6.65863Z" fill="#FEFEFE"/>
<path fill-rule="evenodd" clip-rule="evenodd" d="M164.205 31.2805H158.486V34.1178C160.274 34.9279 162.236 35.3471 164.205 35.3758C166.173 35.3471 168.135 34.9279 169.923 34.1178V31.2805H164.205Z" fill="#D7FA00"/>
</svg>
